<svg id="linkedinCover" width="1584" height="396" viewBox="0 0 1584 396" xmlns="http://www.w3.org/2000/svg">
                <!-- Background Gradient -->
                <defs>
                    <linearGradient id="bgGradient" x1="0%" y1="0%" x2="100%" y2="0%">
                        <stop offset="0%" style="stop-color:#000000;stop-opacity:1"/>
                        <stop offset="50%" style="stop-color:#000000;stop-opacity:1"/>
                        <stop offset="100%" style="stop-color:#000000;stop-opacity:1"/>
                    </linearGradient>
                    
                    <radialGradient id="glowLeft" cx="50%" cy="50%" r="50%">
                        <stop offset="0%" style="stop-color:rgba(0, 122, 255, 0.15);stop-opacity:1"/>
                        <stop offset="70%" style="stop-color:rgba(0, 122, 255, 0);stop-opacity:0"/>
                    </radialGradient>
                    
                    <radialGradient id="glowRight" cx="50%" cy="50%" r="50%">
                        <stop offset="0%" style="stop-color:rgba(52, 199, 89, 0.15);stop-opacity:1"/>
                        <stop offset="70%" style="stop-color:rgba(52, 199, 89, 0);stop-opacity:0"/>
                    </radialGradient>
                </defs>
                
                <!-- Background -->
                <rect width="1584" height="396" fill="url(#bgGradient)"/>
                
                <!-- Glow Effects -->
                <ellipse cx="316" cy="198" rx="200" ry="200" fill="url(#glowLeft)"/>
                <ellipse cx="1268" cy="198" rx="200" ry="200" fill="url(#glowRight)"/>
                
                <!-- Left 40% empty for profile photo safety zone (633.6px) -->
                <!-- Everything moved 250px to the left from previous position -->
                
                <!-- Apple Logo - At 509px, 10% bigger -->
                <g transform="translate(509, 80)">
                    <path d="M48.56 21.04c-.36.28-6.76 3.89-6.76 11.92 0 9.28 8.14 12.57 8.39 12.64-.04.2-1.29 4.5-4.29 8.91-2.68 3.85-5.47 7.69-9.72 7.69s-5.35-2.47-10.22-2.47c-4.78 0-6.47 2.55-10.34 2.55-3.86 0-6.6-3.57-9.72-7.96-3.57-5.02-6.28-12.68-6.28-20 0-11.75 7.64-17.99 15.16-17.99 4.01 0 7.35 2.63 9.87 2.63 2.46 0 6.28-2.75 10.93-2.75 1.78 0 7.93.16 12.02 6.06zm-14.64-7.27c1.95-2.31 3.29-5.51 3.29-8.7 0-.45-.03-.89-.1-1.25-3.14.1-6.91 2.09-9.16 4.73-1.78 2.04-3.43 5.23-3.43 8.43 0 .49.1.98.1 1.14.2.03.52.07.85.07 2.82 0 6.37-1.89 8.45-4.47z" fill="white" transform="scale(3.3)"/>
                </g>
                
                <!-- Andrés Section - At 750px -->
                <g transform="translate(750, 128)">
                    <text x="0" y="0" font-family="SF Pro Display, -apple-system, Arial, sans-serif" font-size="51" font-weight="700" fill="white" letter-spacing="-0.5">Andrés Sánchez</text>
                    <text x="0" y="35" font-family="SF Pro Display, -apple-system, Arial, sans-serif" font-size="33" font-weight="600" fill="white">Senior iOS Software Engineer</text>
                    <text x="0" y="90" font-family="SF Pro Display, -apple-system, Arial, sans-serif" font-size="24" fill="white">Quito, Ecuador • Remote UTC-8 to UTC-4</text>
                    <text x="0" y="114" font-family="SF Pro Display, -apple-system, Arial, sans-serif" font-size="25" font-weight="500" fill="white">Your next LATAM hire</text>
                    <text x="0" y="165" font-family="SF Pro Display, -apple-system, Arial, sans-serif" font-size="22" fill="rgba(255,255,255,0.8)">and_sg@outlook.com  •  linkedin.com/in/andsangue  •  github.com/AndSanG</text>
                </g>
            </svg>